<?xml version="1.0" encoding="utf-8"?>
<svg viewBox="0.987 2.467 240.063 291.792" xmlns="http://www.w3.org/2000/svg" xmlns:bx="https://boxy-svg.com">
  <rect x="312.318" y="178.662" width="53.269" height="159.347" transform="matrix(0.791622, 0.611011, -0.611012, 0.791621, 27.857017, -286.080911)" style="fill: rgb(140, 187, 235);" bx:origin="0.495 0.465"/>
  <path d="M 72.537 173.269 C 72.537 173.269 25.106 165.972 22.916 233.105 C 20.726 300.238 -1.894 295.131 -1.894 295.131 L 49.186 285.645 C 49.186 285.645 80.564 278.348 95.888 259.375 C 111.212 240.402 110.482 201.728 110.482 201.728 L 72.537 173.269 Z" style="fill: rgb(140, 187, 235);"/>
  <rect x="416.947" y="31.378" width="51.998" height="12.405" transform="matrix(0.795584, 0.605844, -0.605844, 0.795583, -135.404999, -244.148629)" style="fill: rgb(140, 187, 235);"/>
  <path d="M 594 482 A 62 62 0 1 1 594 358 L 594 420 Z" transform="matrix(-0.295283, 0.367398, -0.339942, -0.273216, 530.940308, -72.403824)" style="fill: rgb(140, 187, 235);" bx:shape="pie 594 420 0 62 180 360 1@2f157b0b"/>
  <rect x="416.947" y="31.378" width="51.998" height="12.405" transform="matrix(0.795584, 0.605844, -0.605844, 0.795584, -123.159551, -258.345492)" style="fill: rgb(140, 187, 235);"/>
</svg>