<?xml version="1.0" encoding="utf-8"?>
<svg viewBox="0 0 199.892 230.114" xmlns="http://www.w3.org/2000/svg" xmlns:bx="https://boxy-svg.com">
  <path transform="matrix(-0.005926, -0.289288, 0.346143, -0.004953, -74.754791, 153.191589)" d="M 240.862 220.456 L 273.138 220.456 L 284.475 270.923 A 85.606 85.606 0 0 1 303.259 279.969 L 349.783 257.366 L 369.907 282.601 L 337.519 322.93 A 85.606 85.606 0 0 1 342.158 343.256 L 388.837 365.538 L 381.655 397.005 L 329.931 396.827 A 85.606 85.606 0 0 1 316.932 413.127 L 328.615 463.515 L 299.535 477.519 L 267.424 436.969 A 85.606 85.606 0 0 1 246.576 436.969 L 214.465 477.519 L 185.385 463.515 L 197.068 413.127 A 85.606 85.606 0 0 1 184.069 396.827 L 132.345 397.005 L 125.163 365.538 L 171.842 343.256 A 85.606 85.606 0 0 1 176.481 322.93 L 144.093 282.601 L 164.217 257.366 L 210.741 279.969 A 85.606 85.606 0 0 1 229.525 270.923 Z M 257 301.796 A 50.204 50.204 0 0 0 257 402.204 A 50.204 50.204 0 0 0 257 301.796" style="fill: rgb(140, 187, 235);" bx:shape="cog 257 352 50.204 85.606 131.544 0.456 7 1@37e72f1b"/>
  <path transform="matrix(-0.222397, -0.221733, 0.265311, -0.185868, 202.481888, 211.164642)" d="M 541.124 28.743 L 582.876 28.743 L 592.095 89.249 A 112.838 112.838 0 0 1 617.618 99.821 L 666.921 63.556 L 696.444 93.079 L 660.179 142.382 A 112.838 112.838 0 0 1 670.751 167.905 L 731.257 177.124 L 731.257 218.876 L 670.751 228.095 A 112.838 112.838 0 0 1 660.179 253.618 L 696.444 302.921 L 666.921 332.444 L 617.618 296.179 A 112.838 112.838 0 0 1 592.095 306.751 L 582.876 367.257 L 541.124 367.257 L 531.905 306.751 A 112.838 112.838 0 0 1 506.382 296.179 L 457.079 332.444 L 427.556 302.921 L 463.821 253.618 A 112.838 112.838 0 0 1 453.249 228.095 L 392.743 218.876 L 392.743 177.124 L 453.249 167.905 A 112.838 112.838 0 0 1 463.821 142.382 L 427.556 93.079 L 457.079 63.556 L 506.382 99.821 A 112.838 112.838 0 0 1 531.905 89.249 Z M 562 141.581 A 56.419 56.419 0 0 0 562 254.419 A 56.419 56.419 0 0 0 562 141.581" style="fill: rgb(140, 187, 235);" bx:shape="cog 562 198 56.419 112.838 169.257 0.375 8 1@f51736e0"/>
  <path transform="matrix(-0.057853, -0.285317, 0.340147, -0.053838, -46.116558, 348.142273)" d="M 528.307 329.259 L 587.693 329.259 L 600.806 415.32 A 160.494 160.494 0 0 1 637.107 430.357 L 707.233 378.775 L 749.225 420.767 L 697.643 490.893 A 160.494 160.494 0 0 1 712.68 527.194 L 798.741 540.307 L 798.741 599.693 L 712.68 612.806 A 160.494 160.494 0 0 1 697.643 649.107 L 749.225 719.233 L 707.233 761.225 L 637.107 709.643 A 160.494 160.494 0 0 1 600.806 724.68 L 587.693 810.741 L 528.307 810.741 L 515.194 724.68 A 160.494 160.494 0 0 1 478.893 709.643 L 408.767 761.225 L 366.775 719.233 L 418.357 649.107 A 160.494 160.494 0 0 1 403.32 612.806 L 317.259 599.693 L 317.259 540.307 L 403.32 527.194 A 160.494 160.494 0 0 1 418.357 490.893 L 366.775 420.767 L 408.767 378.775 L 478.893 430.357 A 160.494 160.494 0 0 1 515.194 415.32 Z M 558 489.753 A 80.247 80.247 0 0 0 558 650.247 A 80.247 80.247 0 0 0 558 489.753" style="fill: rgb(140, 187, 235);" bx:shape="cog 558 570 80.247 160.494 240.741 0.375 8 1@7c912f2e"/>
</svg>