<?xml version="1.0" encoding="utf-8"?>
<svg viewBox="130.619 63.485 280.356 176.737" xmlns="http://www.w3.org/2000/svg">
  <path d="M 190.61 62.829 L 343 62.829 C 354.567 62.829 363.944 72.304 363.944 83.991 L 363.944 218.987 C 363.944 230.674 354.567 240.149 343 240.149 L 190.61 240.149 C 179.043 240.149 169.665 230.674 169.665 218.987 L 169.665 83.991 C 169.665 72.304 179.043 62.829 190.61 62.829 Z M 199.637 114.275 L 199.637 182.867 C 199.637 194.554 209.015 204.029 220.582 204.029 L 309.416 204.029 C 320.983 204.029 330.361 194.554 330.361 182.867 L 330.361 114.275 C 330.361 102.588 320.983 93.113 309.416 93.113 L 220.582 93.113 C 209.015 93.113 199.637 102.588 199.637 114.275 Z" style="fill: rgb(140, 187, 235);"/>
  <path d="M 161.033 206.415 L 379.683 206.415 C 396.28 206.415 409.733 208.208 409.733 210.421 L 409.733 235.975 C 409.733 238.188 396.28 239.982 379.683 239.982 L 161.033 239.982 C 144.438 239.982 130.983 238.188 130.983 235.975 L 130.983 210.421 C 130.983 208.208 144.438 206.415 161.033 206.415 Z M 173.988 216.154 L 173.988 229.138 C 173.988 231.35 187.443 233.144 204.04 233.144 L 331.496 233.144 C 348.092 233.144 361.549 231.35 361.549 229.138 L 361.549 216.154 C 361.549 213.941 348.092 212.148 331.496 212.148 L 204.04 212.148 C 187.443 212.148 173.988 213.941 173.988 216.154 Z" style="fill: rgb(140, 187, 235);"/>
</svg>