<?xml version="1.0" encoding="utf-8"?>
<svg viewBox="140.971 12.624 225.422 396.902" xmlns="http://www.w3.org/2000/svg">
  <path d="M 305.02 77.35 C 260.751 53.026 218.916 51.078 186.807 80.269 C 167.535 97.79 162.913 135.978 180.969 161.996 C 191.853 177.68 209.183 185.052 234.044 191.915 C 269.052 201.579 300.47 209.147 331.29 233.508 C 356.08 253.102 364.784 290.579 359.081 321.074 C 347.611 382.403 267.017 394.172 159.357 362.619 C 155.733 361.557 159.283 350.273 154.143 345.814 C 151.372 343.41 207.522 353.11 214.536 353.771 C 233.989 355.605 277.355 367.008 309.259 352.312 C 332.062 341.809 341.187 328.114 341.854 301.95 C 342.353 282.377 336.432 266.098 318.887 250.722 C 296.142 230.789 270.607 225.952 238.416 218.359 C 207.978 211.18 209.257 207.664 194.397 202.703 C 186.506 200.069 176.809 192.902 168.861 185.485 C 161.306 178.434 153.899 166.82 151.06 156.444 C 148.024 145.347 144.851 131.747 145.723 120.264 C 146.582 108.96 148.132 95.842 153.515 86.31 C 159.194 76.255 172.911 63.137 175.487 60.51 C 177.416 58.543 207.113 40.285 222.409 38.664 C 240.832 36.711 254.307 38.263 272.855 42.637 C 283.939 45.251 311.181 60.794 321.502 65.964 C 326.952 68.694 315.335 71.323 305.02 77.35 Z" style="fill: rgb(140, 187, 235);"/>
  <rect x="257.74" y="16.636" width="11.653" height="391.116" style="fill: rgb(140, 187, 235);"/>
  <rect x="813.8" y="1725.512" width="11.653" height="391.116" transform="matrix(1.000004, 0, 0, 1, -584.468117, -1709.237793)" style="fill: rgb(140, 187, 235);"/>
</svg>