<?xml version="1.0" encoding="utf-8"?>
<svg viewBox="0 0 230.006 232.195" xmlns="http://www.w3.org/2000/svg" xmlns:bx="https://boxy-svg.com">
  <path transform="matrix(-0.729636, 0.010562, -0.010562, -0.729636, 455.492554, 325.658051)" d="M 442.569 136.456 L 481.431 136.456 L 490.013 192.775 A 105.029 105.029 0 0 1 513.769 202.616 L 559.66 168.86 L 587.14 196.34 L 553.384 242.231 A 105.029 105.029 0 0 1 563.225 265.987 L 619.544 274.569 L 619.544 313.431 L 563.225 322.013 A 105.029 105.029 0 0 1 553.384 345.769 L 587.14 391.66 L 559.66 419.14 L 513.769 385.384 A 105.029 105.029 0 0 1 490.013 395.225 L 481.431 451.544 L 442.569 451.544 L 433.987 395.225 A 105.029 105.029 0 0 1 410.231 385.384 L 364.34 419.14 L 336.86 391.66 L 370.616 345.769 A 105.029 105.029 0 0 1 360.775 322.013 L 304.456 313.431 L 304.456 274.569 L 360.775 265.987 A 105.029 105.029 0 0 1 370.616 242.231 L 336.86 196.34 L 364.34 168.86 L 410.231 202.616 A 105.029 105.029 0 0 1 433.987 192.775 Z M 462 241.485 A 52.515 52.515 0 0 0 462 346.515 A 52.515 52.515 0 0 0 462 241.485" style="fill: rgb(140, 187, 235);" bx:shape="cog 462 294 52.515 105.029 157.544 0.375 8 1@ebac8079"/>
</svg>