<?xml version="1.0" encoding="utf-8"?>
<svg viewBox="214.554 102.496 158.646 158.646" width="158.646" height="158.646" xmlns="http://www.w3.org/2000/svg">
  <path d="M 233.113 232.805 C 204.954 199.246 209.332 149.214 242.891 121.055 C 276.45 92.897 326.482 97.274 354.641 130.833 C 382.8 164.392 378.422 214.425 344.863 242.583 C 311.304 270.742 261.272 266.364 233.113 232.805 Z M 337.382 205.371 C 339.406 201.767 340.985 197.936 342.083 193.966 L 368.91 189.371 L 368.933 170.859 L 342.116 167.279 C 341.028 163.35 339.459 159.58 337.443 156.052 L 353.546 133.887 L 340.476 121.046 L 318.6 137.539 C 315.037 135.586 311.239 134.084 307.292 133.066 L 303.238 106.316 L 284.729 106.667 L 280.609 133.571 C 276.659 134.739 272.857 136.385 269.29 138.473 L 247.453 122.808 L 234.35 136.145 L 250.399 157.701 C 248.375 161.305 246.797 165.135 245.699 169.105 L 218.872 173.701 L 218.849 192.213 L 245.666 195.792 C 246.754 199.721 248.323 203.492 250.338 207.019 L 234.235 229.184 L 247.306 242.025 L 269.182 225.532 C 272.745 227.485 276.542 228.987 280.49 230.005 L 284.544 256.755 L 303.052 256.404 L 307.172 229.5 C 311.122 228.332 314.924 226.686 318.492 224.598 L 340.328 240.263 L 353.431 226.926 Z M 287.388 205.82 C 268.797 201.189 262.598 178.057 276.228 164.183 C 282.554 157.744 291.766 155.101 300.394 157.251 C 318.984 161.883 325.184 185.015 311.553 198.888 C 305.228 205.327 296.016 207.97 287.388 205.82 Z" style="fill: rgb(116, 209, 214);" transform="matrix(1, 0, 0, 1, 2.842170943040401e-14, 0)"/>
</svg>
