<?xml version="1.0" encoding="utf-8"?>
<svg viewBox="0 0 164.914 165.146" xmlns="http://www.w3.org/2000/svg" xmlns:bx="https://boxy-svg.com">
  <path d="M 658.998 128.555 A 112.201 112.201 0 1 1 656.133 128.927 L 672 240 Z" transform="matrix(0.729714, 0, 0, 0.729714, -407.707764, -93.190651)" style="fill: rgb(160, 207, 255);" bx:shape="pie 672 240 0 112.201 353.346 351.87 1@83490716"/>
  <path d="M 765.85 178.508 A 112.201 112.201 0 1 1 672 127.799 L 672 240 Z" transform="matrix(0.729714, 0, 0, 0.729714, -408.296448, -92.293411)" style="fill: rgb(140, 187, 235);" bx:shape="pie 672 240 0 112.201 56.766 360 1@0955ebad"/>
  <path d="M 565.663 204.202 A 112.201 112.201 0 0 1 672 127.799 L 672 240 Z" transform="matrix(0.729714, 0, 0, 0.729714, -407.546539, -92.293396)" style="fill: rgb(100, 147, 195);" bx:shape="pie 672 240 0 112.201 288.606 360 1@d9517491"/>
  <path d="M 615.387 143.129 A 112.201 112.201 0 0 1 672 127.799 L 672 240 Z" transform="matrix(0.729714, 0, 0, 0.729714, -407.546539, -92.293388)" style="fill: rgb(80, 127, 175);" bx:shape="pie 672 240 0 112.201 329.697 360 1@1bcd55d4"/>
  <path d="M 652.061 129.585 A 112.201 112.201 0 0 1 672 127.799 L 672 240 Z" transform="matrix(0.729714, 0, 0, 0.729714, -407.546539, -92.293388)" style="fill: rgb(60, 107, 155);" bx:shape="pie 672 240 0 112.201 349.764 360 1@f0f27d61"/>
</svg>