<svg viewBox="114.613 18.197 163.509 163.509" xmlns="http://www.w3.org/2000/svg" xmlns:bx="https://boxy-svg.com">
  <defs></defs>
  <path d="M 754 171 A 213.002 213.002 0 1 1 541 -41.002 L 541 172 Z" style="fill: rgb(249, 106, 106);" transform="matrix(0.383821, 0, 0, 0.383821, -11.279552, 33.934635)" bx:shape="pie 541 172 0 213.002 89.731 360 1@f70ecf21"></path>
  <path style="fill: rgb(255, 255, 255);" transform="matrix(-0.235643, 0.30297, -0.30297, -0.235643, 372.99472, 62.091946)" d="M 458.156 234.188 L 477.844 234.188 L 482.191 262.719 A 53.208 53.208 0 0 1 494.226 267.704 L 517.475 250.604 L 531.396 264.525 L 514.296 287.774 A 53.208 53.208 0 0 1 519.281 299.809 L 547.812 304.156 L 547.812 323.844 L 519.281 328.191 A 53.208 53.208 0 0 1 514.296 340.226 L 531.396 363.475 L 517.475 377.396 L 494.226 360.296 A 53.208 53.208 0 0 1 482.191 365.281 L 477.844 393.812 L 458.156 393.812 L 453.809 365.281 A 53.208 53.208 0 0 1 441.774 360.296 L 418.525 377.396 L 404.604 363.475 L 421.704 340.226 A 53.208 53.208 0 0 1 416.719 328.191 L 388.188 323.844 L 388.188 304.156 L 416.719 299.809 A 53.208 53.208 0 0 1 421.704 287.774 L 404.604 264.525 L 418.525 250.604 L 441.774 267.704 A 53.208 53.208 0 0 1 453.809 262.719 Z M 468 287.396 A 26.604 26.604 0 0 0 468 340.604 A 26.604 26.604 0 0 0 468 287.396" bx:shape="cog 468 314 26.604 53.208 79.812 0.375 8 1@b8891a3b"></path>
</svg>
