<?xml version="1.0" encoding="utf-8"?>
<svg viewBox="0 0 532.838 751.022" xmlns="http://www.w3.org/2000/svg" xmlns:bx="https://boxy-svg.com">
  <g>
    <title>Head</title>
    <ellipse transform="matrix(-0.622747, -0.782424, 0.782424, -0.622746, 314.239093, 423.82866)" cx="293.345" cy="111.646" rx="45.699" ry="45.699" style="fill: rgb(140, 187, 235);"/>
    <ellipse transform="matrix(-0.571066, -0.820905, 0.820905, -0.571065, 256.376553, 492.405932)" cx="347.346" cy="151.781" rx="20.445" ry="20.445" style="fill: rgb(140, 187, 235);"/>
    <ellipse transform="matrix(-0.588171, -0.808736, 0.808736, -0.588172, 401.146131, 559.384611)" cx="440.747" cy="141.564" rx="19.85" ry="19.85" style="fill: rgb(140, 187, 235);"/>
  </g>
  <rect x="203.671" y="166.375" width="31.378" height="35.026" style="fill: rgb(140, 187, 235);">
    <title>Throat</title>
  </rect>
  <path d="M 414 330.409 L 472.577 372.967 L 450.202 441.828 L 377.798 441.828 L 355.423 372.967 Z" transform="matrix(0.3265, 0.945197, -0.945197, 0.3265, 457.223751, -282.007506)" style="fill: rgb(140, 187, 235);" bx:shape="n-gon 414 392 61.591 61.591 5 0 1@f4ed2b4b">
    <title>Chest</title>
  </path>
  <g transform="matrix(-0.340653, 0.94019, -0.94019, -0.340653, 427.810089, 153.847427)">
    <title>Left Arm</title>
    <rect x="66.858" y="201.084" width="23.347" height="79.833" transform="matrix(0.816218, 0.577744, -0.577744, 0.816218, 215.035011, 28.161038)" style="fill: rgb(140, 187, 235);"/>
    <rect x="66.858" y="192.959" width="23.347" height="76.608" transform="matrix(0.816218, 0.577744, -0.577744, 0.816218, 159.145544, 107.328107)" style="fill: rgb(140, 187, 235);"/>
    <path transform="matrix(-0.373418, -0.373418, 0.404832, -0.404832, 40.612465, 626.439941)" d="M 301.896 320.544 L 306.104 320.544 L 306.559 331.881 A 14.349 14.349 0 0 1 308.843 332.493 L 314.906 322.902 L 318.55 325.006 L 313.276 335.052 A 14.349 14.349 0 0 1 314.948 336.724 L 324.994 331.45 L 327.098 335.094 L 317.507 341.157 A 14.349 14.349 0 0 1 318.119 343.441 L 329.456 343.896 L 329.456 348.104 L 318.119 348.559 A 14.349 14.349 0 0 1 317.507 350.843 L 327.098 356.906 L 324.994 360.55 L 314.948 355.276 A 14.349 14.349 0 0 1 313.276 356.948 L 318.55 366.994 L 314.906 369.098 L 308.843 359.507 A 14.349 14.349 0 0 1 306.559 360.119 L 306.104 371.456 L 301.896 371.456 L 301.441 360.119 A 14.349 14.349 0 0 1 299.157 359.507 L 293.094 369.098 L 289.45 366.994 L 294.724 356.948 A 14.349 14.349 0 0 1 293.052 355.276 L 283.006 360.55 L 280.902 356.906 L 290.493 350.843 A 14.349 14.349 0 0 1 289.881 348.559 L 278.544 348.104 L 278.544 343.896 L 289.881 343.441 A 14.349 14.349 0 0 1 290.493 341.157 L 280.902 335.094 L 283.006 331.45 L 293.052 336.724 A 14.349 14.349 0 0 1 294.724 335.052 L 289.45 325.006 L 293.094 322.902 L 299.157 332.493 A 14.349 14.349 0 0 1 301.441 331.881 Z M 304 346 A 0 0 0 0 0 304 346 A 0 0 0 0 0 304 346" style="fill: rgb(140, 187, 235);" bx:shape="cog 304 346 0 14.349 25.456 0.37 12 1@e6cf9e7c"/>
  </g>
  <g transform="matrix(-0.300893, -0.953659, 0.953659, -0.300893, 150.999054, 569.576782)">
    <title>Right Arm</title>
    <rect x="66.858" y="214.324" width="23.347" height="85.09" transform="matrix(-0.811877, 0.583828, -0.583832, -0.811875, 519.632443, 433.48383)" style="fill: rgb(140, 187, 235);"/>
    <rect x="66.858" y="182.391" width="23.347" height="72.412" transform="matrix(-0.821206, 0.570631, -0.570631, -0.821207, 545.7854, 477.036936)" style="fill: rgb(140, 187, 235);"/>
    <path transform="matrix(-0.373418, -0.373418, 0.404832, -0.404832, 351.210602, 628.886902)" d="M 301.896 320.544 L 306.104 320.544 L 306.559 331.881 A 14.349 14.349 0 0 1 308.843 332.493 L 314.906 322.902 L 318.55 325.006 L 313.276 335.052 A 14.349 14.349 0 0 1 314.948 336.724 L 324.994 331.45 L 327.098 335.094 L 317.507 341.157 A 14.349 14.349 0 0 1 318.119 343.441 L 329.456 343.896 L 329.456 348.104 L 318.119 348.559 A 14.349 14.349 0 0 1 317.507 350.843 L 327.098 356.906 L 324.994 360.55 L 314.948 355.276 A 14.349 14.349 0 0 1 313.276 356.948 L 318.55 366.994 L 314.906 369.098 L 308.843 359.507 A 14.349 14.349 0 0 1 306.559 360.119 L 306.104 371.456 L 301.896 371.456 L 301.441 360.119 A 14.349 14.349 0 0 1 299.157 359.507 L 293.094 369.098 L 289.45 366.994 L 294.724 356.948 A 14.349 14.349 0 0 1 293.052 355.276 L 283.006 360.55 L 280.902 356.906 L 290.493 350.843 A 14.349 14.349 0 0 1 289.881 348.559 L 278.544 348.104 L 278.544 343.896 L 289.881 343.441 A 14.349 14.349 0 0 1 290.493 341.157 L 280.902 335.094 L 283.006 331.45 L 293.052 336.724 A 14.349 14.349 0 0 1 294.724 335.052 L 289.45 325.006 L 293.094 322.902 L 299.157 332.493 A 14.349 14.349 0 0 1 301.441 331.881 Z M 304 346 A 0 0 0 0 0 304 346 A 0 0 0 0 0 304 346" style="fill: rgb(140, 187, 235);" bx:shape="cog 304 346 0 14.349 25.456 0.37 12 1@e6cf9e7c"/>
  </g>
  <ellipse transform="matrix(-0.5932, -0.805056, 0.805056, -0.593198, 144.363753, 646.867436)" cx="240.289" cy="276.004" rx="28.075" ry="28.26" style="fill: rgb(140, 187, 235);">
    <title>Abs</title>
  </ellipse>
  <polygon points="190.455 300.642 260.507 300.642 291.885 367.047 159.807 367.047" style="fill: rgb(140, 187, 235);">
    <title>Hips</title>
  </polygon>
  <g>
    <title>Left Leg</title>
    <rect x="183.401" y="372.884" width="27.729" height="129.159" style="fill: rgb(140, 187, 235);"/>
    <rect x="183.888" y="517.003" width="27.729" height="129.159" style="fill: rgb(140, 187, 235);"/>
    <path d="M 339.317 422.447 L 363.381 464.127 L 315.253 464.127 L 339.317 422.447 Z" transform="matrix(1, -0.001196, 0.001195, 1, -142.103412, 195.781216)" style="fill: rgb(140, 187, 235);" bx:shape="triangle 315.253 422.447 48.128 41.68 0.5 0 1@fccedae6"/>
    <ellipse transform="matrix(-0.832051, -0.554701, 0.554696, -0.832049, 275.739477, 1043.279983)" cx="361.932" cy="401.336" rx="10.524" ry="10.524" style="fill: rgb(140, 187, 235);"/>
  </g>
  <g>
    <title>Right Leg</title>
    <rect x="245.859" y="372.33" width="27.729" height="129.159" style="fill: rgb(140, 187, 235);"/>
    <rect x="245.184" y="514.084" width="27.729" height="129.159" style="fill: rgb(140, 187, 235);"/>
    <path d="M 339.317 422.448 L 363.381 464.128 L 315.253 464.128 L 339.317 422.448 Z" transform="matrix(1, -0.001196, 0.001195, 0.999999, -81.069553, 196.077332)" style="fill: rgb(140, 187, 235);" bx:shape="triangle 315.253 422.448 48.128 41.68 0.5 0 1@00bded81"/>
    <ellipse transform="matrix(-0.832053, -0.554701, 0.554699, -0.832049, 337.574618, 1041.116575)" cx="361.932" cy="401.336" rx="10.524" ry="10.524" style="fill: rgb(140, 187, 235);"/>
  </g>
</svg>